<svg xmlns="http://www.w3.org/2000/svg" width="601" height="242"><defs><marker id="a" orient="auto" refX="0" refY="0" style="overflow:visible"><path d="m0 0 5-5-17.5 5L5 5z" style="fill-rule:evenodd;stroke:#000;stroke-width:1pt" transform="matrix(-.4 0 0 -.4 -4 0)"/></marker><marker id="b" orient="auto" refX="0" refY="0" style="overflow:visible"><path d="m0 0 5-5-17.5 5L5 5z" style="fill-rule:evenodd;stroke:#000;stroke-width:1pt" transform="matrix(-.4 0 0 -.4 -4 0)"/></marker><marker id="c" orient="auto" refX="0" refY="0" style="overflow:visible"><path d="m0 0 5-5-17.5 5L5 5z" style="fill-rule:evenodd;stroke:#000;stroke-width:1pt" transform="matrix(-.4 0 0 -.4 -4 0)"/></marker></defs><g style="display:inline"><text xml:space="preserve" x="137.961" y="904.673" style="font-size:12px;font-style:normal;font-variant:normal;font-weight:400;font-stretch:normal;text-align:center;line-height:125%;letter-spacing:0;word-spacing:0;writing-mode:lr-tb;text-anchor:middle;fill:#000;fill-opacity:1;stroke:none;font-family:DejaVu Sans;-inkscape-font-specification:DejaVu Sans" transform="translate(-32 -816.362)"><tspan x="137.961" y="904.673">block cipher</tspan><tspan x="137.961" y="919.673" style="font-weight:700">encryption</tspan></text><path d="M89.5 80.5h98v36h-98z" style="fill:none;stroke:#000;stroke-width:1;stroke-linecap:square;stroke-miterlimit:4;stroke-opacity:1;stroke-dasharray:none;stroke-dashoffset:0" transform="translate(-32 -6)"/><path d="M88.5 48.5h8v10h-8zM96.5 48.5h8v10h-8zM104.5 48.5h8v10h-8zM112.5 48.5h8v10h-8zM120.5 48.5h8v10h-8zM128.5 48.5h8v10h-8zM136.5 48.5h8v10h-8zM144.5 48.5h8v10h-8zM152.5 48.5h8v10h-8zM160.5 48.5h8v10h-8zM168.5 48.5h8v10h-8zM176.5 48.5h8v10h-8zM184.5 48.5h8v10h-8z" style="fill:none;stroke:#000;stroke-width:1;stroke-linecap:square;stroke-miterlimit:4;stroke-opacity:1;stroke-dasharray:none;stroke-dashoffset:0" transform="translate(-34 -12)"/><text xml:space="preserve" x="-.357" y="95.626" style="font-size:12px;font-style:normal;font-variant:normal;font-weight:400;font-stretch:normal;text-align:start;line-height:125%;letter-spacing:0;word-spacing:0;text-anchor:start;fill:#000;fill-opacity:1;stroke:none;font-family:DejaVu Sans;-inkscape-font-specification:Sans"><tspan x="-.357" y="95.626">Key</tspan></text><path d="M88.5 48.5h8v10h-8zM96.5 48.5h8v10h-8zM104.5 48.5h8v10h-8zM112.5 48.5h8v10h-8zM120.5 48.5h8v10h-8zM128.5 48.5h8v10h-8zM136.5 48.5h8v10h-8zM144.5 48.5h8v10h-8zM152.5 48.5h8v10h-8zM160.5 48.5h8v10h-8zM168.5 48.5h8v10h-8zM176.5 48.5h8v10h-8zM184.5 48.5h8v10h-8z" style="fill:none;stroke:#000;stroke-width:1;stroke-linecap:square;stroke-miterlimit:4;stroke-opacity:1;stroke-dasharray:none;stroke-dashoffset:0" transform="translate(-34 117)"/><text xml:space="preserve" x="106.31" y="190.5" style="font-size:12px;font-style:normal;font-variant:normal;font-weight:400;font-stretch:normal;text-align:start;line-height:125%;letter-spacing:0;word-spacing:0;text-anchor:start;fill:#000;fill-opacity:1;stroke:none;font-family:DejaVu Sans;-inkscape-font-specification:Sans"><tspan x="106.31" y="190.5" style="text-align:center;text-anchor:middle">Plaintext</tspan></text><path d="M106.5 113.5v47" style="fill:none;stroke:#000;stroke-width:1px;stroke-linecap:butt;stroke-linejoin:miter;stroke-opacity:1;marker-end:url(#a)"/><path d="M25.5 92.5h27" style="fill:none;stroke:#000;stroke-width:1px;stroke-linecap:butt;stroke-linejoin:miter;stroke-opacity:1;marker-end:url(#a)"/><path d="M106.5 51.5v19" style="fill:none;stroke:#000;stroke-width:1px;stroke-linecap:butt;stroke-linejoin:miter;stroke-opacity:1;marker-end:url(#a)"/><text xml:space="preserve" x="106.058" y="27.5" style="font-size:12px;font-style:normal;font-variant:normal;font-weight:400;font-stretch:normal;text-align:center;line-height:125%;letter-spacing:0;word-spacing:0;writing-mode:lr-tb;text-anchor:middle;fill:#000;fill-opacity:1;stroke:none;display:inline;font-family:DejaVu Sans;-inkscape-font-specification:DejaVu Sans"><tspan x="106.058" y="27.5" style="font-size:12px;font-style:normal;font-variant:normal;font-weight:400;font-stretch:normal;text-align:center;line-height:125%;writing-mode:lr-tb;text-anchor:middle;font-family:DejaVu Sans;-inkscape-font-specification:DejaVu Sans">Initialization Vector (IV)</tspan></text><g style="display:inline"><path d="M146.5 133.5a6 6 0 1 1-12 0 6 6 0 0 1 12 0z" style="fill:none;stroke:#000;stroke-width:1;stroke-linecap:square;stroke-miterlimit:4;stroke-opacity:1;stroke-dasharray:none;stroke-dashoffset:0" transform="translate(-34 6)"/><path d="M132.5 133.5h12" style="fill:none;stroke:#000;stroke-width:1px;stroke-linecap:butt;stroke-linejoin:miter;stroke-opacity:1" transform="translate(-32 6)"/></g><path d="M170.5 115.5v-72h120v26" style="fill:none;stroke:#000;stroke-width:1px;stroke-linecap:butt;stroke-linejoin:miter;stroke-opacity:1;marker-end:url(#b)"/><g style="display:inline"><text xml:space="preserve" x="137.961" y="904.673" style="font-size:12px;font-style:normal;font-variant:normal;font-weight:400;font-stretch:normal;text-align:center;line-height:125%;letter-spacing:0;word-spacing:0;writing-mode:lr-tb;text-anchor:middle;fill:#000;fill-opacity:1;stroke:none;font-family:DejaVu Sans;-inkscape-font-specification:DejaVu Sans" transform="translate(152 -816.362)"><tspan x="137.961" y="904.673">block cipher</tspan><tspan x="137.961" y="919.673" style="font-weight:700">encryption</tspan></text><path d="M89.5 80.5h98v36h-98z" style="fill:none;stroke:#000;stroke-width:1;stroke-linecap:square;stroke-miterlimit:4;stroke-opacity:1;stroke-dasharray:none;stroke-dashoffset:0" transform="translate(152 -6)"/></g><text xml:space="preserve" x="183.643" y="95.626" style="font-size:12px;font-style:normal;font-variant:normal;font-weight:400;font-stretch:normal;text-align:start;line-height:125%;letter-spacing:0;word-spacing:0;text-anchor:start;fill:#000;fill-opacity:1;stroke:none;display:inline;font-family:DejaVu Sans;-inkscape-font-specification:Sans"><tspan x="183.643" y="95.626">Key</tspan></text><g style="display:inline"><path d="M88.5 48.5h8v10h-8zM96.5 48.5h8v10h-8zM104.5 48.5h8v10h-8zM112.5 48.5h8v10h-8zM120.5 48.5h8v10h-8zM128.5 48.5h8v10h-8zM136.5 48.5h8v10h-8zM144.5 48.5h8v10h-8zM152.5 48.5h8v10h-8zM160.5 48.5h8v10h-8zM168.5 48.5h8v10h-8zM176.5 48.5h8v10h-8zM184.5 48.5h8v10h-8z" style="fill:none;stroke:#000;stroke-width:1;stroke-linecap:square;stroke-miterlimit:4;stroke-opacity:1;stroke-dasharray:none;stroke-dashoffset:0" transform="translate(150 117)"/></g><text xml:space="preserve" x="290.31" y="190.5" style="font-size:12px;font-style:normal;font-variant:normal;font-weight:400;font-stretch:normal;text-align:start;line-height:125%;letter-spacing:0;word-spacing:0;text-anchor:start;fill:#000;fill-opacity:1;stroke:none;display:inline;font-family:DejaVu Sans;-inkscape-font-specification:Sans"><tspan x="290.31" y="190.5" style="text-align:center;text-anchor:middle">Plaintext</tspan></text><path d="M290.5 113.5v47" style="fill:none;stroke:#000;stroke-width:1px;stroke-linecap:butt;stroke-linejoin:miter;stroke-opacity:1;marker-end:url(#a);display:inline"/><path d="M209.5 92.5h27" style="fill:none;stroke:#000;stroke-width:1px;stroke-linecap:butt;stroke-linejoin:miter;stroke-opacity:1;marker-end:url(#a);display:inline"/><g style="display:inline"><text xml:space="preserve" x="137.961" y="904.673" style="font-size:12px;font-style:normal;font-variant:normal;font-weight:400;font-stretch:normal;text-align:center;line-height:125%;letter-spacing:0;word-spacing:0;writing-mode:lr-tb;text-anchor:middle;fill:#000;fill-opacity:1;stroke:none;font-family:DejaVu Sans;-inkscape-font-specification:DejaVu Sans" transform="translate(336 -816.362)"><tspan x="137.961" y="904.673">block cipher</tspan><tspan x="137.961" y="919.673" style="font-weight:700">encryption</tspan></text><path d="M89.5 80.5h98v36h-98z" style="fill:none;stroke:#000;stroke-width:1;stroke-linecap:square;stroke-miterlimit:4;stroke-opacity:1;stroke-dasharray:none;stroke-dashoffset:0" transform="translate(336 -6)"/></g><text xml:space="preserve" x="367.643" y="95.626" style="font-size:12px;font-style:normal;font-variant:normal;font-weight:400;font-stretch:normal;text-align:start;line-height:125%;letter-spacing:0;word-spacing:0;text-anchor:start;fill:#000;fill-opacity:1;stroke:none;display:inline;font-family:DejaVu Sans;-inkscape-font-specification:Sans"><tspan x="367.643" y="95.626">Key</tspan></text><g style="display:inline"><path d="M88.5 48.5h8v10h-8zM96.5 48.5h8v10h-8zM104.5 48.5h8v10h-8zM112.5 48.5h8v10h-8zM120.5 48.5h8v10h-8zM128.5 48.5h8v10h-8zM136.5 48.5h8v10h-8zM144.5 48.5h8v10h-8zM152.5 48.5h8v10h-8zM160.5 48.5h8v10h-8zM168.5 48.5h8v10h-8zM176.5 48.5h8v10h-8zM184.5 48.5h8v10h-8z" style="fill:none;stroke:#000;stroke-width:1;stroke-linecap:square;stroke-miterlimit:4;stroke-opacity:1;stroke-dasharray:none;stroke-dashoffset:0" transform="translate(334 117)"/></g><text xml:space="preserve" x="474.31" y="190.5" style="font-size:12px;font-style:normal;font-variant:normal;font-weight:400;font-stretch:normal;text-align:start;line-height:125%;letter-spacing:0;word-spacing:0;text-anchor:start;fill:#000;fill-opacity:1;stroke:none;display:inline;font-family:DejaVu Sans;-inkscape-font-specification:Sans"><tspan x="474.31" y="190.5" style="text-align:center;text-anchor:middle">Plaintext</tspan></text><path d="M474.5 113.5v47" style="fill:none;stroke:#000;stroke-width:1px;stroke-linecap:butt;stroke-linejoin:miter;stroke-opacity:1;marker-end:url(#a);display:inline"/><path d="M393.5 92.5h27" style="fill:none;stroke:#000;stroke-width:1px;stroke-linecap:butt;stroke-linejoin:miter;stroke-opacity:1;marker-end:url(#a);display:inline"/><g style="display:inline"><path d="M146.5 133.5a6 6 0 1 1-12 0 6 6 0 0 1 12 0z" style="fill:none;stroke:#000;stroke-width:1;stroke-linecap:square;stroke-miterlimit:4;stroke-opacity:1;stroke-dasharray:none;stroke-dashoffset:0" transform="translate(150 6)"/><path d="M132.5 133.5h12" style="fill:none;stroke:#000;stroke-width:1px;stroke-linecap:butt;stroke-linejoin:miter;stroke-opacity:1" transform="translate(152 6)"/></g><g style="display:inline"><path d="M88.5 48.5h8v10h-8zM96.5 48.5h8v10h-8zM104.5 48.5h8v10h-8zM112.5 48.5h8v10h-8zM120.5 48.5h8v10h-8zM128.5 48.5h8v10h-8zM136.5 48.5h8v10h-8zM144.5 48.5h8v10h-8zM152.5 48.5h8v10h-8zM160.5 48.5h8v10h-8zM168.5 48.5h8v10h-8zM176.5 48.5h8v10h-8zM184.5 48.5h8v10h-8z" style="fill:none;stroke:#000;stroke-width:1;stroke-linecap:square;stroke-miterlimit:4;stroke-opacity:1;stroke-dasharray:none;stroke-dashoffset:0" transform="translate(38 86)"/></g><text xml:space="preserve" x="178.31" y="129.25" style="font-size:12px;font-style:normal;font-variant:normal;font-weight:400;font-stretch:normal;text-align:center;line-height:125%;letter-spacing:0;word-spacing:0;writing-mode:lr-tb;text-anchor:middle;fill:#000;fill-opacity:1;stroke:none;display:inline;font-family:DejaVu Sans;-inkscape-font-specification:DejaVu Sans"><tspan x="178.31" y="129.25">Ciphertext</tspan></text><g style="display:inline"><path d="M146.5 133.5a6 6 0 1 1-12 0 6 6 0 0 1 12 0z" style="fill:none;stroke:#000;stroke-width:1;stroke-linecap:square;stroke-miterlimit:4;stroke-opacity:1;stroke-dasharray:none;stroke-dashoffset:0" transform="translate(334 6)"/><path d="M132.5 133.5h12" style="fill:none;stroke:#000;stroke-width:1px;stroke-linecap:butt;stroke-linejoin:miter;stroke-opacity:1" transform="translate(336 6)"/></g><g style="display:inline"><path d="M88.5 48.5h8v10h-8zM96.5 48.5h8v10h-8zM104.5 48.5h8v10h-8zM112.5 48.5h8v10h-8zM120.5 48.5h8v10h-8zM128.5 48.5h8v10h-8zM136.5 48.5h8v10h-8zM144.5 48.5h8v10h-8zM152.5 48.5h8v10h-8zM160.5 48.5h8v10h-8zM168.5 48.5h8v10h-8zM176.5 48.5h8v10h-8zM184.5 48.5h8v10h-8z" style="fill:none;stroke:#000;stroke-width:1;stroke-linecap:square;stroke-miterlimit:4;stroke-opacity:1;stroke-dasharray:none;stroke-dashoffset:0" transform="translate(222 86)"/></g><g style="display:inline"><path d="M88.5 48.5h8v10h-8zM96.5 48.5h8v10h-8zM104.5 48.5h8v10h-8zM112.5 48.5h8v10h-8zM120.5 48.5h8v10h-8zM128.5 48.5h8v10h-8zM136.5 48.5h8v10h-8zM144.5 48.5h8v10h-8zM152.5 48.5h8v10h-8zM160.5 48.5h8v10h-8zM168.5 48.5h8v10h-8zM176.5 48.5h8v10h-8zM184.5 48.5h8v10h-8z" style="fill:none;stroke:#000;stroke-width:1;stroke-linecap:square;stroke-miterlimit:4;stroke-opacity:1;stroke-dasharray:none;stroke-dashoffset:0" transform="translate(406 86)"/></g><text xml:space="preserve" x="362.31" y="129.25" style="font-size:12px;font-style:normal;font-variant:normal;font-weight:400;font-stretch:normal;text-align:center;line-height:125%;letter-spacing:0;word-spacing:0;writing-mode:lr-tb;text-anchor:middle;fill:#000;fill-opacity:1;stroke:none;display:inline;font-family:DejaVu Sans;-inkscape-font-specification:DejaVu Sans"><tspan x="362.31" y="129.25">Ciphertext</tspan></text><text xml:space="preserve" x="546.31" y="129.25" style="font-size:12px;font-style:normal;font-variant:normal;font-weight:400;font-stretch:normal;text-align:center;line-height:125%;letter-spacing:0;word-spacing:0;writing-mode:lr-tb;text-anchor:middle;fill:#000;fill-opacity:1;stroke:none;display:inline;font-family:DejaVu Sans;-inkscape-font-specification:DejaVu Sans"><tspan x="546.31" y="129.25">Ciphertext</tspan></text><path d="M123.5 139.5h-8" style="fill:none;stroke:#000;stroke-width:1px;stroke-linecap:butt;stroke-linejoin:miter;stroke-opacity:1;marker-end:url(#c)"/><path d="M307.5 139.5h-8" style="fill:none;stroke:#000;stroke-width:1px;stroke-linecap:butt;stroke-linejoin:miter;stroke-opacity:1;marker-end:url(#c);display:inline"/><path d="M491.5 139.5h-8" style="fill:none;stroke:#000;stroke-width:1px;stroke-linecap:butt;stroke-linejoin:miter;stroke-opacity:1;marker-end:url(#c);display:inline"/><path d="M354.5 115.5v-72h120v26" style="fill:none;stroke:#000;stroke-width:1px;stroke-linecap:butt;stroke-linejoin:miter;stroke-opacity:1;marker-end:url(#b);display:inline"/><text xml:space="preserve" x="310.738" y="226" style="font-size:16px;font-style:normal;font-variant:normal;font-weight:400;font-stretch:normal;text-align:center;line-height:125%;letter-spacing:0;word-spacing:0;writing-mode:lr-tb;text-anchor:middle;fill:#000;fill-opacity:1;stroke:none;display:inline;font-family:DejaVu Sans;-inkscape-font-specification:DejaVu Sans"><tspan x="310.738" y="226">Cipher Feedback (CFB) mode decryption</tspan></text></g></svg>