<svg xmlns="http://www.w3.org/2000/svg" width="601" height="242"><defs><marker id="a" orient="auto" refX="0" refY="0" style="overflow:visible"><path d="m0 0 5-5-17.5 5L5 5z" style="fill-rule:evenodd;stroke:#000;stroke-width:1pt" transform="matrix(-.4 0 0 -.4 -4 0)"/></marker></defs><g style="display:inline"><text xml:space="preserve" x="322.738" y="222" style="font-size:16px;font-style:normal;font-variant:normal;font-weight:400;font-stretch:normal;text-align:center;line-height:125%;letter-spacing:0;word-spacing:0;writing-mode:lr-tb;text-anchor:middle;fill:#000;fill-opacity:1;stroke:none;font-family:DejaVu Sans;-inkscape-font-specification:DejaVu Sans"><tspan x="322.738" y="222">Electronic Codebook (ECB) mode encryption</tspan></text><text xml:space="preserve" x="137.961" y="904.673" style="font-size:12px;font-style:normal;font-variant:normal;font-weight:400;font-stretch:normal;text-align:center;line-height:125%;letter-spacing:0;word-spacing:0;writing-mode:lr-tb;text-anchor:middle;fill:#000;fill-opacity:1;stroke:none;font-family:DejaVu Sans;-inkscape-font-specification:DejaVu Sans" transform="translate(0 -810.362)"><tspan x="137.961" y="904.673">block cipher</tspan><tspan x="137.961" y="919.673" style="font-weight:400">encryption</tspan></text><path d="M89.5 80.5h98v36h-98z" style="fill:none;stroke:#000;stroke-width:1;stroke-linecap:square;stroke-miterlimit:4;stroke-opacity:1;stroke-dasharray:none;stroke-dashoffset:0"/><path d="M88.5 48.5h8v10h-8zM96.5 48.5h8v10h-8zM104.5 48.5h8v10h-8zM112.5 48.5h8v10h-8zM120.5 48.5h8v10h-8zM128.5 48.5h8v10h-8zM136.5 48.5h8v10h-8zM144.5 48.5h8v10h-8zM152.5 48.5h8v10h-8zM160.5 48.5h8v10h-8zM168.5 48.5h8v10h-8zM176.5 48.5h8v10h-8zM184.5 48.5h8v10h-8z" style="fill:none;stroke:#000;stroke-width:1;stroke-linecap:square;stroke-miterlimit:4;stroke-opacity:1;stroke-dasharray:none;stroke-dashoffset:0" transform="translate(-2)"/><text xml:space="preserve" x="31.643" y="101.626" style="font-size:12px;font-style:normal;font-variant:normal;font-weight:400;font-stretch:normal;text-align:start;line-height:125%;letter-spacing:0;word-spacing:0;text-anchor:start;fill:#000;fill-opacity:1;stroke:none;font-family:DejaVu Sans;-inkscape-font-specification:Sans"><tspan x="31.643" y="101.626">Key</tspan></text><path d="M88.5 48.5h8v10h-8zM96.5 48.5h8v10h-8zM104.5 48.5h8v10h-8zM112.5 48.5h8v10h-8zM120.5 48.5h8v10h-8zM128.5 48.5h8v10h-8zM136.5 48.5h8v10h-8zM144.5 48.5h8v10h-8zM152.5 48.5h8v10h-8zM160.5 48.5h8v10h-8zM168.5 48.5h8v10h-8zM176.5 48.5h8v10h-8zM184.5 48.5h8v10h-8z" style="fill:none;stroke:#000;stroke-width:1;stroke-linecap:square;stroke-miterlimit:4;stroke-opacity:1;stroke-dasharray:none;stroke-dashoffset:0" transform="translate(-2 113)"/><text xml:space="preserve" x="138.31" y="186.5" style="font-size:12px;font-style:normal;font-variant:normal;font-weight:400;font-stretch:normal;text-align:start;line-height:125%;letter-spacing:0;word-spacing:0;text-anchor:start;fill:#000;fill-opacity:1;stroke:none;font-family:DejaVu Sans;-inkscape-font-specification:Sans"><tspan x="138.31" y="186.5" style="text-align:center;text-anchor:middle">Ciphertext</tspan></text><path d="M138.5 61.5v15" style="fill:none;stroke:#000;stroke-width:1px;stroke-linecap:butt;stroke-linejoin:miter;stroke-opacity:1;marker-end:url(#a)"/><path d="M57.5 98.5h27" style="fill:none;stroke:#000;stroke-width:1px;stroke-linecap:butt;stroke-linejoin:miter;stroke-opacity:1;marker-end:url(#a)"/><path d="M138.5 121.5v35" style="fill:none;stroke:#000;stroke-width:1px;stroke-linecap:butt;stroke-linejoin:miter;stroke-opacity:1;marker-end:url(#a)"/><g style="display:inline"><text xml:space="preserve" x="137.961" y="904.673" style="font-size:12px;font-style:normal;font-variant:normal;font-weight:400;font-stretch:normal;text-align:center;line-height:125%;letter-spacing:0;word-spacing:0;writing-mode:lr-tb;text-anchor:middle;fill:#000;fill-opacity:1;stroke:none;font-family:DejaVu Sans;-inkscape-font-specification:DejaVu Sans" transform="translate(184 -810.362)"><tspan x="137.961" y="904.673">block cipher</tspan><tspan x="137.961" y="919.673" style="font-weight:400">encryption</tspan></text><path d="M89.5 80.5h98v36h-98z" style="fill:none;stroke:#000;stroke-width:1;stroke-linecap:square;stroke-miterlimit:4;stroke-opacity:1;stroke-dasharray:none;stroke-dashoffset:0" transform="translate(184)"/></g><g style="display:inline"><path d="M88.5 48.5h8v10h-8zM96.5 48.5h8v10h-8zM104.5 48.5h8v10h-8zM112.5 48.5h8v10h-8zM120.5 48.5h8v10h-8zM128.5 48.5h8v10h-8zM136.5 48.5h8v10h-8zM144.5 48.5h8v10h-8zM152.5 48.5h8v10h-8zM160.5 48.5h8v10h-8zM168.5 48.5h8v10h-8zM176.5 48.5h8v10h-8zM184.5 48.5h8v10h-8z" style="fill:none;stroke:#000;stroke-width:1;stroke-linecap:square;stroke-miterlimit:4;stroke-opacity:1;stroke-dasharray:none;stroke-dashoffset:0" transform="translate(182)"/></g><text xml:space="preserve" x="215.643" y="101.626" style="font-size:12px;font-style:normal;font-variant:normal;font-weight:400;font-stretch:normal;text-align:start;line-height:125%;letter-spacing:0;word-spacing:0;text-anchor:start;fill:#000;fill-opacity:1;stroke:none;display:inline;font-family:DejaVu Sans;-inkscape-font-specification:Sans"><tspan x="215.643" y="101.626">Key</tspan></text><g style="display:inline"><path d="M88.5 48.5h8v10h-8zM96.5 48.5h8v10h-8zM104.5 48.5h8v10h-8zM112.5 48.5h8v10h-8zM120.5 48.5h8v10h-8zM128.5 48.5h8v10h-8zM136.5 48.5h8v10h-8zM144.5 48.5h8v10h-8zM152.5 48.5h8v10h-8zM160.5 48.5h8v10h-8zM168.5 48.5h8v10h-8zM176.5 48.5h8v10h-8zM184.5 48.5h8v10h-8z" style="fill:none;stroke:#000;stroke-width:1;stroke-linecap:square;stroke-miterlimit:4;stroke-opacity:1;stroke-dasharray:none;stroke-dashoffset:0" transform="translate(182 113)"/></g><text xml:space="preserve" x="322.31" y="186.5" style="font-size:12px;font-style:normal;font-variant:normal;font-weight:400;font-stretch:normal;text-align:start;line-height:125%;letter-spacing:0;word-spacing:0;text-anchor:start;fill:#000;fill-opacity:1;stroke:none;display:inline;font-family:DejaVu Sans;-inkscape-font-specification:Sans"><tspan x="322.31" y="186.5" style="text-align:center;text-anchor:middle">Ciphertext</tspan></text><path d="M322.5 61.5v15" style="fill:none;stroke:#000;stroke-width:1px;stroke-linecap:butt;stroke-linejoin:miter;stroke-opacity:1;marker-end:url(#a);display:inline"/><path d="M241.5 98.5h27" style="fill:none;stroke:#000;stroke-width:1px;stroke-linecap:butt;stroke-linejoin:miter;stroke-opacity:1;marker-end:url(#a);display:inline"/><path d="M322.5 121.5v35" style="fill:none;stroke:#000;stroke-width:1px;stroke-linecap:butt;stroke-linejoin:miter;stroke-opacity:1;marker-end:url(#a);display:inline"/><g style="display:inline"><text xml:space="preserve" x="137.961" y="904.673" style="font-size:12px;font-style:normal;font-variant:normal;font-weight:400;font-stretch:normal;text-align:center;line-height:125%;letter-spacing:0;word-spacing:0;writing-mode:lr-tb;text-anchor:middle;fill:#000;fill-opacity:1;stroke:none;font-family:DejaVu Sans;-inkscape-font-specification:DejaVu Sans" transform="translate(368 -810.362)"><tspan x="137.961" y="904.673">block cipher</tspan><tspan x="137.961" y="919.673" style="font-weight:400">encryption</tspan></text><path d="M89.5 80.5h98v36h-98z" style="fill:none;stroke:#000;stroke-width:1;stroke-linecap:square;stroke-miterlimit:4;stroke-opacity:1;stroke-dasharray:none;stroke-dashoffset:0" transform="translate(368)"/></g><g style="display:inline"><path d="M88.5 48.5h8v10h-8zM96.5 48.5h8v10h-8zM104.5 48.5h8v10h-8zM112.5 48.5h8v10h-8zM120.5 48.5h8v10h-8zM128.5 48.5h8v10h-8zM136.5 48.5h8v10h-8zM144.5 48.5h8v10h-8zM152.5 48.5h8v10h-8zM160.5 48.5h8v10h-8zM168.5 48.5h8v10h-8zM176.5 48.5h8v10h-8zM184.5 48.5h8v10h-8z" style="fill:none;stroke:#000;stroke-width:1;stroke-linecap:square;stroke-miterlimit:4;stroke-opacity:1;stroke-dasharray:none;stroke-dashoffset:0" transform="translate(366)"/></g><text xml:space="preserve" x="399.643" y="101.626" style="font-size:12px;font-style:normal;font-variant:normal;font-weight:400;font-stretch:normal;text-align:start;line-height:125%;letter-spacing:0;word-spacing:0;text-anchor:start;fill:#000;fill-opacity:1;stroke:none;display:inline;font-family:DejaVu Sans;-inkscape-font-specification:Sans"><tspan x="399.643" y="101.626">Key</tspan></text><g style="display:inline"><path d="M88.5 48.5h8v10h-8zM96.5 48.5h8v10h-8zM104.5 48.5h8v10h-8zM112.5 48.5h8v10h-8zM120.5 48.5h8v10h-8zM128.5 48.5h8v10h-8zM136.5 48.5h8v10h-8zM144.5 48.5h8v10h-8zM152.5 48.5h8v10h-8zM160.5 48.5h8v10h-8zM168.5 48.5h8v10h-8zM176.5 48.5h8v10h-8zM184.5 48.5h8v10h-8z" style="fill:none;stroke:#000;stroke-width:1;stroke-linecap:square;stroke-miterlimit:4;stroke-opacity:1;stroke-dasharray:none;stroke-dashoffset:0" transform="translate(366 113)"/></g><text xml:space="preserve" x="506.31" y="186.5" style="font-size:12px;font-style:normal;font-variant:normal;font-weight:400;font-stretch:normal;text-align:start;line-height:125%;letter-spacing:0;word-spacing:0;text-anchor:start;fill:#000;fill-opacity:1;stroke:none;display:inline;font-family:DejaVu Sans;-inkscape-font-specification:Sans"><tspan x="506.31" y="186.5" style="text-align:center;text-anchor:middle">Ciphertext</tspan></text><path d="M506.5 61.5v15" style="fill:none;stroke:#000;stroke-width:1px;stroke-linecap:butt;stroke-linejoin:miter;stroke-opacity:1;marker-end:url(#a);display:inline"/><path d="M425.5 98.5h27" style="fill:none;stroke:#000;stroke-width:1px;stroke-linecap:butt;stroke-linejoin:miter;stroke-opacity:1;marker-end:url(#a);display:inline"/><path d="M506.5 121.5v35" style="fill:none;stroke:#000;stroke-width:1px;stroke-linecap:butt;stroke-linejoin:miter;stroke-opacity:1;marker-end:url(#a);display:inline"/><text xml:space="preserve" x="138.058" y="39.5" style="font-size:12px;font-style:normal;font-variant:normal;font-weight:400;font-stretch:normal;text-align:center;line-height:125%;letter-spacing:0;word-spacing:0;writing-mode:lr-tb;text-anchor:middle;fill:#000;fill-opacity:1;stroke:none;display:inline;font-family:DejaVu Sans;-inkscape-font-specification:DejaVu Sans"><tspan x="138.058" y="39.5" style="font-size:12px;font-style:normal;font-variant:normal;font-weight:400;font-stretch:normal;text-align:center;line-height:125%;writing-mode:lr-tb;text-anchor:middle;font-family:DejaVu Sans;-inkscape-font-specification:DejaVu Sans">Plaintext</tspan></text><text xml:space="preserve" x="322.058" y="39.5" style="font-size:12px;font-style:normal;font-variant:normal;font-weight:400;font-stretch:normal;text-align:center;line-height:125%;letter-spacing:0;word-spacing:0;writing-mode:lr-tb;text-anchor:middle;fill:#000;fill-opacity:1;stroke:none;display:inline;font-family:DejaVu Sans;-inkscape-font-specification:DejaVu Sans"><tspan x="322.058" y="39.5" style="font-size:12px;font-style:normal;font-variant:normal;font-weight:400;font-stretch:normal;text-align:center;line-height:125%;writing-mode:lr-tb;text-anchor:middle;font-family:DejaVu Sans;-inkscape-font-specification:DejaVu Sans">Plaintext</tspan></text><text xml:space="preserve" x="506.058" y="39.5" style="font-size:12px;font-style:normal;font-variant:normal;font-weight:400;font-stretch:normal;text-align:center;line-height:125%;letter-spacing:0;word-spacing:0;writing-mode:lr-tb;text-anchor:middle;fill:#000;fill-opacity:1;stroke:none;display:inline;font-family:DejaVu Sans;-inkscape-font-specification:DejaVu Sans"><tspan x="506.058" y="39.5" style="font-size:12px;font-style:normal;font-variant:normal;font-weight:400;font-stretch:normal;text-align:center;line-height:125%;writing-mode:lr-tb;text-anchor:middle;font-family:DejaVu Sans;-inkscape-font-specification:DejaVu Sans">Plaintext</tspan></text></g></svg>